HIERARCHY
ROOT Hips
{
	OFFSET 51.080502 -7.664849 51.308601
	CHANNELS 6 Xposition Yposition Zposition Xrotation Yrotation Zrotation
	JOINT spine
	{
		OFFSET 0.000000 -0.507025 8.817039
		CHANNELS 3 Xrotation Yrotation Zrotation
		JOINT spine1
		{
			OFFSET 0.000000 -0.000002 10.776596
			CHANNELS 3 Xrotation Yrotation Zrotation
			JOINT spine2
			{
				OFFSET 0.000000 -0.000002 10.325897
				CHANNELS 3 Xrotation Yrotation Zrotation
				JOINT Neck
				{
					OFFSET 0.000000 -1.263954 26.511002
					CHANNELS 3 Xrotation Yrotation Zrotation
					JOINT Head
					{
						OFFSET 0.000000 -0.000002 8.009659
						CHANNELS 3 Xrotation Yrotation Zrotation
						End Site
						{
							OFFSET 0.000000 6.393857 19.387894
						}
					}
				}
				JOINT RightShoulder
				{
					OFFSET -4.347950 0.605420 11.151199
					CHANNELS 3 Xrotation Yrotation Zrotation
					JOINT RightArm
					{
						OFFSET 0.000000 -0.000002 14.625801
						CHANNELS 3 Xrotation Yrotation Zrotation
						JOINT RightArmRoll
						{
							OFFSET 0.000000 -0.000001 7.383400
							CHANNELS 3 Xrotation Yrotation Zrotation
							JOINT RightForeArm
							{
								OFFSET 0.000000 -0.000003 21.505203
								CHANNELS 3 Xrotation Yrotation Zrotation
								JOINT RightForeArmRoll
								{
									OFFSET 0.000000 -0.000001 8.285324
									CHANNELS 3 Xrotation Yrotation Zrotation
									JOINT RightHand
									{
										OFFSET 0.000000 -0.000003 16.626801
										CHANNELS 3 Xrotation Yrotation Zrotation
										End Site
										{
											OFFSET 0.000000 0.000000 0.100006
										}
									}
								}
							}
						}
					}
				}
				JOINT LeftShoulder
				{
					OFFSET 4.347950 0.605420 11.151199
					CHANNELS 3 Xrotation Yrotation Zrotation
					JOINT LeftArm
					{
						OFFSET 0.000000 -0.000002 14.625801
						CHANNELS 3 Xrotation Yrotation Zrotation
						JOINT LeftArmRoll
						{
							OFFSET 0.000000 -0.000001 7.383400
							CHANNELS 3 Xrotation Yrotation Zrotation
							JOINT LeftForeArm
							{
								OFFSET 0.000000 -0.000003 21.505203
								CHANNELS 3 Xrotation Yrotation Zrotation
								JOINT LeftForeArmRoll
								{
									OFFSET 0.000000 -0.000001 8.285324
									CHANNELS 3 Xrotation Yrotation Zrotation
									JOINT LeftHand
									{
										OFFSET 0.000000 -0.000003 16.626801
										CHANNELS 3 Xrotation Yrotation Zrotation
										End Site
										{
											OFFSET 0.000000 0.000000 0.100006
										}
									}
								}
							}
						}
					}
				}
			}
		}
	}
	JOINT RightUpLeg
	{
		OFFSET -7.815102 1.202170 -1.433090
		CHANNELS 3 Xrotation Yrotation Zrotation
		JOINT RightUpLegRoll
		{
			OFFSET 0.000000 -0.000003 19.495903
			CHANNELS 3 Xrotation Yrotation Zrotation
			JOINT RightLeg
			{
				OFFSET 0.000000 0.000004 -24.142700
				CHANNELS 3 Xrotation Yrotation Zrotation
				JOINT RightLegRoll
				{
					OFFSET 0.000000 -0.000004 24.221703
					CHANNELS 3 Xrotation Yrotation Zrotation
					JOINT RightFoot
					{
						OFFSET 0.000000 -0.000003 20.160500
						CHANNELS 3 Xrotation Yrotation Zrotation
						JOINT RightToeBase
						{
							OFFSET 0.000000 -0.000002 16.853203
							CHANNELS 3 Xrotation Yrotation Zrotation
							End Site
							{
								OFFSET 0.007145 0.940779 8.161873
							}
						}
					}
				}
			}
		}
	}
	JOINT LeftUpLeg
	{
		OFFSET 7.815102 1.202170 -1.433090
		CHANNELS 3 Xrotation Yrotation Zrotation
		JOINT LeftUpLegRoll
		{
			OFFSET 0.000000 -0.000003 19.496002
			CHANNELS 3 Xrotation Yrotation Zrotation
			JOINT LeftLeg
			{
				OFFSET 0.000000 -0.000004 24.142601
				CHANNELS 3 Xrotation Yrotation Zrotation
				JOINT LeftLegRoll
				{
					OFFSET 0.000000 -0.000004 24.445602
					CHANNELS 3 Xrotation Yrotation Zrotation
					JOINT LeftFoot
					{
						OFFSET 0.000000 -0.000003 19.936600
						CHANNELS 3 Xrotation Yrotation Zrotation
						JOINT LeftToeBase
						{
							OFFSET 0.000000 -0.000003 16.853195
							CHANNELS 3 Xrotation Yrotation Zrotation
							End Site
							{
								OFFSET -0.032013 0.940780 8.161865
							}
						}
					}
				}
			}
		}
	}
}
MOTION
Frames: 7
Frame Time: 0.041667
48.866501 -40.831207 100.811005 -3.732994 -0.695594 -0.226086 -1.838087 -0.166970 0.005465 0.326658 -0.323445 0.007288 1.971742 -0.323848 0.011211 29.524787 5.052093 2.203631 -9.039017 0.762127 2.796108 -3.145204 -62.890490 -4.161134 -42.997277 -118.143121 -30.230598 0.000000 -0.000024 0.000003 0.116463 -14.917572 -0.505383 0.000002 0.000002 -3.037729 -5.000238 -7.998782 0.000151 -13.230348 63.528908 15.811847 -37.661882 114.251887 31.085970 -0.000001 0.000001 -0.000000 3.707964 12.330628 -0.001655 -0.000002 -0.000006 3.000001 -5.000227 7.998712 -0.000166 1.866715 -176.264984 0.773485 -179.999991 0.000005 -1.177998 171.485723 -1.024583 -0.542389 -0.000003 0.000004 0.153536 70.171813 6.896099 2.043622 25.788744 -7.352898 0.494605 2.906688 176.444564 2.037910 -0.000005 -0.000005 -1.187920 -7.271055 1.324854 0.398489 -0.000006 -0.000001 -0.107355 69.600174 -6.916731 -2.033172 25.995447 7.346794 -0.795658 
48.860001 -40.817810 100.830002 -3.705724 -0.699245 -0.220396 -1.845647 -0.166912 0.002664 0.311529 -0.324048 0.001663 1.956621 -0.324482 0.005590 29.577024 5.083350 2.198891 -9.064172 0.744188 2.798129 -3.064003 -62.894062 -4.068206 -42.993602 -118.122084 -30.217672 -0.000000 -0.000024 0.000003 0.116465 -14.915175 -0.504396 0.000000 0.000003 -3.037729 -5.000241 -7.998780 0.000150 -13.233704 63.569254 15.817258 -37.733052 114.215646 31.147947 0.000001 0.000001 -0.000000 3.673506 12.336481 0.000634 0.000003 -0.000006 3.000001 -5.000229 7.998712 -0.000165 1.835150 -176.258933 0.772277 -179.999991 0.000005 -1.177998 171.489753 -1.027565 -0.542761 -0.000003 0.000004 0.153570 70.164594 6.896108 2.043569 25.788740 -7.352898 0.494095 2.868339 176.452446 2.050159 -0.000005 -0.000004 -1.187920 -7.268873 1.320971 0.398464 -0.000006 -0.000001 -0.107355 69.588836 -6.916715 -2.032575 25.995048 7.346794 -0.795124 
48.855701 -40.824711 100.822998 -3.676457 -0.703041 -0.214277 -1.853797 -0.166823 -0.000300 0.295217 -0.324620 -0.004289 1.940301 -0.325083 -0.000359 29.631826 5.115504 2.193933 -9.090744 0.725324 2.800234 -2.979522 -62.898379 -3.971593 -42.988777 -118.100596 -30.202847 -0.000000 -0.000024 0.000004 0.116467 -14.912770 -0.503390 0.000001 0.000002 -3.037729 -5.000239 -7.998779 0.000150 -13.236755 63.611157 15.822371 -37.805237 114.178456 31.210215 -0.000000 0.000001 -0.000001 3.637013 12.342556 0.003078 -0.000001 -0.000005 3.000001 -5.000228 7.998711 -0.000165 1.801128 -176.253837 0.770871 -179.999991 0.000005 -1.177998 171.493537 -1.030534 -0.542139 -0.000002 0.000004 0.153620 70.157265 6.896080 2.043620 25.788738 -7.352898 0.493565 2.827269 176.459303 2.063024 -0.000005 -0.000004 -1.187920 -7.266910 1.316871 0.398428 -0.000005 -0.000001 -0.107355 69.577088 -6.916713 -2.032009 25.994638 7.346792 -0.794539 
48.863098 -40.818413 100.826004 -3.645808 -0.706936 -0.207858 -1.862356 -0.166711 -0.003378 0.278076 -0.325166 -0.010470 1.923162 -0.325663 -0.006536 29.688391 5.148276 2.188810 -9.118309 0.705813 2.802391 -2.892730 -62.903085 -3.872398 -42.985526 -118.077278 -30.189426 0.000001 -0.000024 0.000003 0.116467 -14.910271 -0.502367 0.000001 0.000002 -3.037729 -5.000238 -7.998778 0.000150 -13.239622 63.654201 15.827302 -37.879959 114.139633 31.274705 -0.000000 0.000001 -0.000001 3.599106 12.348849 0.005628 0.000001 -0.000006 3.000001 -5.000229 7.998711 -0.000165 1.765401 -176.248769 0.769350 -179.999991 0.000005 -1.177998 171.497143 -1.033516 -0.542519 -0.000003 0.000004 0.153682 70.149724 6.896083 2.043689 25.788737 -7.352896 0.493025 2.784284 176.467172 2.076417 -0.000005 -0.000004 -1.187910 -7.265116 1.312611 0.398383 -0.000006 -0.000001 -0.107355 69.565135 -6.916734 -2.031357 25.994240 7.346796 -0.793939 
48.861301 -40.806305 100.825996 -3.614359 -0.710884 -0.201263 -1.871167 -0.166586 -0.006520 0.260460 -0.325697 -0.016782 1.905551 -0.326228 -0.012845 29.745901 5.181401 2.183573 -9.146442 0.685931 2.804585 -2.804633 -62.908166 -3.771732 -42.981626 -118.053686 -30.175076 -0.000001 -0.000023 0.000003 0.116466 -14.907771 -0.501336 0.000001 0.000003 -3.037730 -5.000240 -7.998781 0.000151 -13.242322 63.697764 15.832059 -37.955925 114.099943 31.340227 -0.000000 0.000001 -0.000000 3.560396 12.355344 0.008240 -0.000001 -0.000006 3.000001 -5.000228 7.998712 -0.000164 1.728695 -176.242704 0.767788 -179.999991 0.000005 -1.177998 171.500641 -1.036498 -0.542899 -0.000002 0.000005 0.153751 70.142095 6.896113 2.043567 25.788747 -7.352888 0.492470 2.740217 176.475013 2.090064 -0.000005 -0.000005 -1.187910 -7.263413 1.308271 0.398336 -0.000006 -0.000001 -0.107355 69.553059 -6.916710 -2.030707 25.993834 7.346796 -0.793304 
48.861698 -40.807102 100.827003 -3.582699 -0.714840 -0.194622 -1.880029 -0.166457 -0.009679 0.242726 -0.326221 -0.023126 1.887820 -0.326787 -0.019187 29.803735 5.214612 2.178256 -9.174716 0.665953 2.806757 -2.716167 -62.913098 -3.670652 -42.977719 -118.030108 -30.160630 0.000001 -0.000023 0.000003 0.116463 -14.905271 -0.500304 0.000002 0.000003 -3.037731 -5.000236 -7.998781 0.000151 -13.245019 63.741538 15.836798 -38.031938 114.060245 31.405729 -0.000001 0.000001 -0.000001 3.521473 12.361737 0.010884 -0.000002 -0.000005 3.000001 -5.000230 7.998709 -0.000164 1.691745 -176.236625 0.766203 -179.999991 0.000005 -1.177998 171.504124 -1.039466 -0.542268 -0.000003 0.000005 0.153821 70.134548 6.896074 2.043630 25.788738 -7.352890 0.491911 2.695868 176.482895 2.103776 -0.000005 -0.000004 -1.187910 -7.261730 1.303901 0.398286 -0.000006 -0.000001 -0.107355 69.540881 -6.916716 -2.030068 25.993431 7.346796 -0.792680 
48.865299 -40.806709 100.828003 -3.551449 -0.718759 -0.188062 -1.888767 -0.166334 -0.012805 0.225228 -0.326748 -0.029406 1.870321 -0.327347 -0.025463 29.861075 5.247638 2.172888 -9.202709 0.646159 2.808894 -2.628299 -62.917865 -3.570255 -42.974143 -118.006640 -30.146642 0.000002 -0.000023 0.000003 0.116465 -14.902776 -0.499276 0.000002 0.000004 -3.037731 -5.000239 -7.998780 0.000151 -13.247788 63.784999 15.841618 -38.108610 114.020699 31.472040 -0.000000 0.000000 -0.000001 3.482953 12.368122 0.013503 0.000001 -0.000006 3.000000 -5.000227 7.998712 -0.000166 1.655291 -176.230560 0.764643 -179.999991 0.000005 -1.177998 171.507635 -1.042448 -0.542647 -0.000003 0.000005 0.153888 70.126918 6.896103 2.043608 25.788742 -7.352889 0.491360 2.652075 176.490763 2.117342 -0.000005 -0.000004 -1.187900 -7.260007 1.299581 0.398240 -0.000006 -0.000001 -0.107355 69.528819 -6.916720 -2.029422 25.993026 7.346791 -0.792054 
